<svg width="1178" height="333" viewBox="0 0 1178 333" fill="none" xmlns="http://www.w3.org/2000/svg">
<path d="M66.9323 19.9227C70.6494 13.9442 79.3506 13.9443 83.0677 19.9228L97.5561 43.2252C99.0016 45.5501 101.298 47.2185 103.956 47.8748L130.595 54.4532C137.429 56.141 140.118 64.4163 135.581 69.799L117.896 90.7791C116.132 92.8723 115.255 95.5718 115.452 98.3023L117.427 125.67C117.934 132.692 110.895 137.806 104.373 135.155L78.9552 124.819C76.4192 123.787 73.5808 123.787 71.0448 124.819L45.6267 135.155C39.1054 137.806 32.0659 132.692 32.5728 125.67L34.5483 98.3023C34.7454 95.5718 33.8682 92.8723 32.1038 90.7791L14.419 69.7989C9.88179 64.4163 12.5706 56.141 19.4052 54.4532L46.0442 47.8748C48.702 47.2185 50.9984 45.5501 52.4439 43.2252L66.9323 19.9227Z" stroke="black"/>
<path d="M914.932 13.9227C918.649 7.94425 927.351 7.94426 931.068 13.9228L945.556 37.2252C947.002 39.5501 949.298 41.2185 951.956 41.8748L978.595 48.4532C985.429 50.141 988.118 58.4163 983.581 63.799L965.896 84.7791C964.132 86.8723 963.255 89.5718 963.452 92.3023L965.427 119.67C965.934 126.692 958.895 131.806 952.373 129.155L926.955 118.819C924.419 117.787 921.581 117.787 919.045 118.819L893.627 129.155C887.105 131.806 880.066 126.692 880.573 119.67L882.548 92.3023C882.745 89.5718 881.868 86.8723 880.104 84.7791L862.419 63.7989C857.882 58.4163 860.571 50.141 867.405 48.4532L894.044 41.8748C896.702 41.2185 898.998 39.5501 900.444 37.2252L914.932 13.9227Z" stroke="black"/>
<path d="M490.932 185.923C494.649 179.944 503.351 179.944 507.068 185.923L521.556 209.225C523.002 211.55 525.298 213.219 527.956 213.875L554.595 220.453C561.429 222.141 564.118 230.416 559.581 235.799L541.896 256.779C540.132 258.872 539.255 261.572 539.452 264.302L541.427 291.67C541.934 298.692 534.895 303.806 528.373 301.155L502.955 290.819C500.419 289.787 497.581 289.787 495.045 290.819L469.627 301.155C463.105 303.806 456.066 298.692 456.573 291.67L458.548 264.302C458.745 261.572 457.868 258.872 456.104 256.779L438.419 235.799C433.882 230.416 436.571 222.141 443.405 220.453L470.044 213.875C472.702 213.219 474.998 211.55 476.444 209.225L490.932 185.923Z" stroke="black"/>
<path d="M257.484 56.46L258.461 56.5786L270.922 16.4003L263.285 57.7676L264.205 58.1164L285.919 22.0879L268.604 60.4253L269.414 60.9842L299.12 31.1993L273.132 64.2788L273.785 65.0153L309.756 43.2049L276.607 69.1041L277.064 69.9753L317.209 57.4071L278.826 74.6207L279.062 75.576L321.048 72.9803L279.661 80.5081V81.4919L321.048 89.0197L279.062 86.424L278.826 87.3793L317.209 104.593L277.064 92.0247L276.607 92.8959L309.756 118.795L273.785 96.9847L273.132 97.7212L299.12 130.801L269.414 101.016L268.604 101.575L285.919 139.912L264.205 103.884L263.285 104.232L270.922 145.6L258.461 105.421L257.484 105.54L255 147.533L252.516 105.54L251.539 105.421L239.078 145.6L246.715 104.232L245.795 103.884L224.081 139.912L241.396 101.575L240.586 101.016L210.88 130.801L236.868 97.7212L236.215 96.9847L200.244 118.795L233.393 92.8959L232.936 92.0247L192.791 104.593L231.174 87.3793L230.938 86.424L188.952 89.0197L230.339 81.4919V80.5081L188.952 72.9803L230.938 75.576L231.174 74.6207L192.791 57.4071L232.936 69.9753L233.393 69.1041L200.244 43.2049L236.215 65.0153L236.868 64.2788L210.88 31.1993L240.586 60.9842L241.396 60.4253L224.081 22.0879L245.795 58.1165L246.715 57.7676L239.078 16.4003L251.539 56.5786L252.516 56.46L255 14.467L257.484 56.46Z" stroke="black"/>
<path d="M1105.48 50.46L1106.46 50.5786L1118.92 10.4003L1111.28 51.7676L1112.2 52.1164L1133.92 16.0879L1116.6 54.4253L1117.41 54.9842L1147.12 25.1993L1121.13 58.2788L1121.78 59.0153L1157.76 37.2049L1124.61 63.1041L1125.06 63.9753L1165.21 51.4071L1126.83 68.6207L1127.06 69.576L1169.05 66.9803L1127.66 74.5081V75.4919L1169.05 83.0197L1127.06 80.424L1126.83 81.3793L1165.21 98.5929L1125.06 86.0247L1124.61 86.8959L1157.76 112.795L1121.78 90.9847L1121.13 91.7212L1147.12 124.801L1117.41 95.0158L1116.6 95.5747L1133.92 133.912L1112.2 97.8835L1111.28 98.2324L1118.92 139.6L1106.46 99.4214L1105.48 99.54L1103 141.533L1100.52 99.54L1099.54 99.4214L1087.08 139.6L1094.72 98.2324L1093.8 97.8835L1072.08 133.912L1089.4 95.5747L1088.59 95.0158L1058.88 124.801L1084.87 91.7212L1084.22 90.9847L1048.24 112.795L1081.39 86.8959L1080.94 86.0247L1040.79 98.5929L1079.17 81.3793L1078.94 80.424L1036.95 83.0197L1078.34 75.4919V74.5081L1036.95 66.9803L1078.94 69.576L1079.17 68.6207L1040.79 51.4071L1080.94 63.9753L1081.39 63.1041L1048.24 37.2049L1084.22 59.0153L1084.87 58.2788L1058.88 25.1993L1088.59 54.9842L1089.4 54.4253L1072.08 16.0879L1093.8 52.1165L1094.72 51.7676L1087.08 10.4003L1099.54 50.5786L1100.52 50.46L1103 8.467L1105.48 50.46Z" stroke="black"/>
<path d="M681.484 222.46L682.461 222.579L694.922 182.4L687.285 223.768L688.205 224.116L709.919 188.088L692.604 226.425L693.414 226.984L723.12 197.199L697.132 230.279L697.785 231.015L733.756 209.205L700.607 235.104L701.064 235.975L741.209 223.407L702.826 240.621L703.062 241.576L745.048 238.98L703.661 246.508V247.492L745.048 255.02L703.062 252.424L702.826 253.379L741.209 270.593L701.064 258.025L700.607 258.896L733.756 284.795L697.785 262.985L697.132 263.721L723.12 296.801L693.414 267.016L692.604 267.575L709.919 305.912L688.205 269.884L687.285 270.232L694.922 311.6L682.461 271.421L681.484 271.54L679 313.533L676.516 271.54L675.539 271.421L663.078 311.6L670.715 270.232L669.795 269.884L648.081 305.912L665.396 267.575L664.586 267.016L634.88 296.801L660.868 263.721L660.215 262.985L624.244 284.795L657.393 258.896L656.936 258.025L616.791 270.593L655.174 253.379L654.938 252.424L612.952 255.02L654.339 247.492V246.508L612.952 238.98L654.938 241.576L655.174 240.621L616.791 223.407L656.936 235.975L657.393 235.104L624.244 209.205L660.215 231.015L660.868 230.279L634.88 197.199L664.586 226.984L665.396 226.425L648.081 188.088L669.795 224.116L670.715 223.768L663.078 182.4L675.539 222.579L676.516 222.46L679 180.467L681.484 222.46Z" stroke="black"/>
<path d="M593 6.74469L603.7 18.5542L603.96 18.8419L604.303 18.6607L618.397 11.2228L624.412 25.9796L624.559 26.3391L624.943 26.2862L640.73 24.1171L641.336 40.0413L641.35 40.4292L641.73 40.511L657.307 43.8723L652.429 59.0432L652.311 59.4127L652.639 59.6194L666.127 68.1057L656.355 80.6934L656.117 81L656.355 81.3066L666.127 93.8943L652.639 102.381L652.311 102.587L652.429 102.957L657.307 118.128L641.73 121.489L641.35 121.571L641.336 121.959L640.73 137.883L624.943 135.714L624.559 135.661L624.412 136.02L618.397 150.777L604.303 143.339L603.96 143.158L603.7 143.446L593 155.255L582.3 143.446L582.04 143.158L581.697 143.339L567.603 150.777L561.588 136.02L561.441 135.661L561.057 135.714L545.27 137.883L544.664 121.959L544.65 121.571L544.27 121.489L528.693 118.128L533.571 102.957L533.689 102.587L533.361 102.381L519.873 93.8943L529.645 81.3066L529.883 81L529.645 80.6934L519.873 68.1057L533.361 59.6194L533.689 59.4127L533.571 59.0432L528.693 43.8723L544.27 40.511L544.65 40.4292L544.664 40.0413L545.27 24.1171L561.057 26.2862L561.441 26.3391L561.588 25.9796L567.603 11.2228L581.697 18.6607L582.04 18.8419L582.3 18.5542L593 6.74469Z" stroke="black"/>
<path d="M169 178.745L179.7 190.554L179.96 190.842L180.303 190.661L194.397 183.223L200.412 197.98L200.559 198.339L200.943 198.286L216.73 196.117L217.336 212.041L217.35 212.429L217.73 212.511L233.307 215.872L228.429 231.043L228.311 231.413L228.639 231.619L242.127 240.106L232.355 252.693L232.117 253L232.355 253.307L242.127 265.894L228.639 274.381L228.311 274.587L228.429 274.957L233.307 290.128L217.73 293.489L217.35 293.571L217.336 293.959L216.73 309.883L200.943 307.714L200.559 307.661L200.412 308.02L194.397 322.777L180.303 315.339L179.96 315.158L179.7 315.446L169 327.255L158.3 315.446L158.04 315.158L157.697 315.339L143.603 322.777L137.588 308.02L137.441 307.661L137.057 307.714L121.27 309.883L120.664 293.959L120.65 293.571L120.27 293.489L104.693 290.128L109.571 274.957L109.689 274.587L109.361 274.381L95.8728 265.894L105.645 253.307L105.883 253L105.645 252.693L95.8728 240.106L109.361 231.619L109.689 231.413L109.571 231.043L104.693 215.872L120.27 212.511L120.65 212.429L120.664 212.041L121.27 196.117L137.057 198.286L137.441 198.339L137.588 197.98L143.603 183.223L157.697 190.661L158.04 190.842L158.3 190.554L169 178.745Z" stroke="black"/>
<mask id="path-9-inside-1_1118_29" fill="white">
<path d="M1027.5 172L1032.91 189.448C1041.59 217.429 1062.1 240.196 1089.03 251.736L1091.14 252.64L1088.96 253.574C1062.07 265.096 1041.58 287.812 1032.88 315.739L1027.5 333L1022.12 315.739C1013.42 287.812 992.926 265.096 966.041 253.574L963.86 252.64L965.969 251.736C992.896 240.196 1013.41 217.429 1022.09 189.448L1027.5 172Z"/>
</mask>
<path d="M1027.5 172L1028.46 171.704L1027.5 168.625L1026.54 171.704L1027.5 172ZM1091.14 252.64L1091.53 253.559L1093.68 252.64L1091.53 251.72L1091.14 252.64ZM1027.5 333L1026.55 333.298L1027.5 336.361L1028.45 333.298L1027.5 333ZM963.86 252.64L963.466 251.72L961.322 252.64L963.466 253.559L963.86 252.64ZM1028.45 332.703L1023.08 315.441L1021.17 316.036L1026.55 333.298L1028.45 332.703ZM966.435 252.655L964.254 251.72L963.466 253.559L965.647 254.493L966.435 252.655ZM1026.54 172.296L1031.96 189.745L1033.87 189.152L1028.46 171.704L1026.54 172.296ZM1088.64 252.655L1090.75 253.559L1091.53 251.72L1089.42 250.817L1088.64 252.655ZM1090.75 251.72L1088.57 252.655L1089.35 254.493L1091.53 253.559L1090.75 251.72ZM1031.92 315.441L1026.55 332.703L1028.45 333.298L1033.83 316.036L1031.92 315.441ZM964.254 253.559L966.363 252.655L965.575 250.817L963.466 251.72L964.254 253.559ZM1023.04 189.745L1028.46 172.296L1026.54 171.704L1021.13 189.152L1023.04 189.745ZM966.363 252.655C993.559 241 1014.28 218.005 1023.04 189.745L1021.13 189.152C1012.54 216.853 992.233 239.392 965.575 250.817L966.363 252.655ZM1088.57 252.655C1061.41 264.293 1040.71 287.236 1031.92 315.441L1033.83 316.036C1042.45 288.389 1062.74 265.9 1089.35 254.493L1088.57 252.655ZM1031.96 189.745C1040.72 218.005 1061.44 241 1088.64 252.655L1089.42 250.817C1062.77 239.392 1042.46 216.853 1033.87 189.152L1031.96 189.745ZM1023.08 315.441C1014.29 287.236 993.589 264.293 966.435 252.655L965.647 254.493C992.264 265.9 1012.55 288.389 1021.17 316.036L1023.08 315.441Z" fill="black" mask="url(#path-9-inside-1_1118_29)"/>
<mask id="path-11-inside-2_1118_29" fill="white">
<path d="M698 21L706.55 26.1303C738.219 45.1312 777.781 45.1312 809.45 26.1303L818 21L810.361 36.2786C796.284 64.4314 796.284 97.5686 810.361 125.721L818 141L809.45 135.87C777.781 116.869 738.219 116.869 706.55 135.87L698 141L705.639 125.721C719.716 97.5686 719.716 64.4314 705.639 36.2786L698 21Z"/>
</mask>
<path d="M698 21L698.514 20.1425L695.57 18.3757L697.106 21.4472L698 21ZM818 21L818.894 21.4472L820.43 18.3757L817.486 20.1425L818 21ZM818 141L817.486 141.857L820.43 143.624L818.894 140.553L818 141ZM698 141L697.106 140.553L695.57 143.624L698.514 141.857L698 141ZM697.486 21.8575L706.036 26.9877L707.065 25.2728L698.514 20.1425L697.486 21.8575ZM809.964 26.9878L818.514 21.8575L817.486 20.1425L808.935 25.2728L809.964 26.9878ZM818.514 140.143L809.964 135.012L808.935 136.727L817.486 141.857L818.514 140.143ZM706.036 135.012L697.486 140.143L698.514 141.857L707.065 136.727L706.036 135.012ZM698.894 141.447L706.534 126.169L704.745 125.274L697.106 140.553L698.894 141.447ZM706.534 35.8314L698.894 20.5528L697.106 21.4472L704.745 36.7259L706.534 35.8314ZM817.106 20.5528L809.466 35.8314L811.255 36.7259L818.894 21.4472L817.106 20.5528ZM809.466 126.169L817.106 141.447L818.894 140.553L811.255 125.274L809.466 126.169ZM809.466 35.8314C795.249 64.2657 795.249 97.7343 809.466 126.169L811.255 125.274C797.319 97.4029 797.319 64.5971 811.255 36.7259L809.466 35.8314ZM706.534 126.169C720.751 97.7343 720.751 64.2657 706.534 35.8314L704.745 36.7259C718.681 64.5971 718.681 97.4029 704.745 125.274L706.534 126.169ZM809.964 135.012C777.979 115.821 738.021 115.821 706.036 135.012L707.065 136.727C738.416 117.916 777.584 117.916 808.935 136.727L809.964 135.012ZM706.036 26.9877C738.021 46.1787 777.979 46.1787 809.964 26.9878L808.935 25.2728C777.584 44.0837 738.416 44.0837 707.065 25.2728L706.036 26.9877Z" fill="black" mask="url(#path-11-inside-2_1118_29)"/>
<mask id="path-13-inside-3_1118_29" fill="white">
<path d="M274 193L282.55 198.13C314.219 217.131 353.781 217.131 385.45 198.13L394 193L386.361 208.279C372.284 236.431 372.284 269.569 386.361 297.721L394 313L385.45 307.87C353.781 288.869 314.219 288.869 282.55 307.87L274 313L281.639 297.721C295.716 269.569 295.716 236.431 281.639 208.279L274 193Z"/>
</mask>
<path d="M274 193L274.514 192.143L271.57 190.376L273.106 193.447L274 193ZM394 193L394.894 193.447L396.43 190.376L393.486 192.143L394 193ZM394 313L393.486 313.857L396.43 315.624L394.894 312.553L394 313ZM274 313L273.106 312.553L271.57 315.624L274.514 313.857L274 313ZM273.486 193.857L282.036 198.988L283.065 197.273L274.514 192.143L273.486 193.857ZM385.964 198.988L394.514 193.857L393.486 192.143L384.935 197.273L385.964 198.988ZM394.514 312.143L385.964 307.012L384.935 308.727L393.486 313.857L394.514 312.143ZM282.036 307.012L273.486 312.143L274.514 313.857L283.065 308.727L282.036 307.012ZM274.894 313.447L282.534 298.169L280.745 297.274L273.106 312.553L274.894 313.447ZM282.534 207.831L274.894 192.553L273.106 193.447L280.745 208.726L282.534 207.831ZM393.106 192.553L385.466 207.831L387.255 208.726L394.894 193.447L393.106 192.553ZM385.466 298.169L393.106 313.447L394.894 312.553L387.255 297.274L385.466 298.169ZM385.466 207.831C371.249 236.266 371.249 269.734 385.466 298.169L387.255 297.274C373.319 269.403 373.319 236.597 387.255 208.726L385.466 207.831ZM282.534 298.169C296.751 269.734 296.751 236.266 282.534 207.831L280.745 208.726C294.681 236.597 294.681 269.403 280.745 297.274L282.534 298.169ZM385.964 307.012C353.979 287.821 314.021 287.821 282.036 307.012L283.065 308.727C314.416 289.916 353.584 289.916 384.935 308.727L385.964 307.012ZM282.036 198.988C314.021 218.179 353.979 218.179 385.964 198.988L384.935 197.273C353.584 216.084 314.416 216.084 283.065 197.273L282.036 198.988Z" fill="black" mask="url(#path-13-inside-3_1118_29)"/>
</svg>
