<svg width="40" height="40" viewBox="0 0 40 40" fill="none" xmlns="http://www.w3.org/2000/svg">
<rect width="40" height="40" rx="20" fill="white"/>
<path d="M8.674 21.64V25H6.98V15.2H10.942C11.5207 15.2 12.0433 15.256 12.51 15.368C12.9767 15.4707 13.4013 15.6433 13.784 15.886C14.176 16.1193 14.4793 16.4507 14.694 16.88C14.9087 17.3093 15.016 17.8227 15.016 18.42C15.016 18.9893 14.8993 19.4887 14.666 19.918C14.442 20.3473 14.1293 20.6833 13.728 20.926C13.336 21.1687 12.9067 21.3507 12.44 21.472C11.9733 21.584 11.4693 21.64 10.928 21.64H8.674ZM10.998 16.782H8.674V20.058H10.9C12.468 20.058 13.252 19.5073 13.252 18.406C13.252 17.3233 12.5007 16.782 10.998 16.782ZM16.4683 15.2H23.6363V16.796H18.1623V19.022H20.8643C21.9189 19.022 22.7589 19.2553 23.3843 19.722C24.0189 20.1887 24.3363 20.926 24.3363 21.934C24.3363 23.978 23.0109 25 20.3603 25H16.4683V15.2ZM20.5283 20.618H18.1623V23.404H20.4443C21.8723 23.404 22.5863 22.9187 22.5863 21.948C22.5863 21.0613 21.9003 20.618 20.5283 20.618ZM27.4318 25H25.7378V15.2H27.4318V19.498L31.8278 15.2H34.0398L29.5878 19.596L34.3618 25H32.1078L28.3138 20.73L27.4318 21.584V25Z" fill="#5665EE"/>
</svg>
