<svg width="22" height="18" viewBox="0 0 22 18" fill="none" xmlns="http://www.w3.org/2000/svg">
<path d="M6.00001 10L6.00001 11L6.00001 10ZM21.7071 10.7071C22.0976 10.3166 22.0976 9.68342 21.7071 9.29289L15.3431 2.92894C14.9526 2.53842 14.3194 2.53842 13.9289 2.92894C13.5384 3.31947 13.5384 3.95263 13.9289 4.34316L19.5858 10L13.9289 15.6569C13.5384 16.0474 13.5384 16.6806 13.9289 17.0711C14.3195 17.4616 14.9526 17.4616 15.3432 17.0711L21.7071 10.7071ZM0 0V5.00002H2V0H0ZM6.00001 11L21 11L21 9L6.00001 9.00002L6.00001 11ZM0 5.00002C0 8.31374 2.6863 11 6.00001 11L6.00001 9.00002C3.79086 9.00002 2 7.20916 2 5.00002H0Z" fill="#333333"/>
</svg>
