<svg width="74" height="19" viewBox="0 0 74 19" fill="none" xmlns="http://www.w3.org/2000/svg">
<path d="M14.2215 0.4153H18.2953L10.66 18.5847H8.02553L0 0.4153H4.17132L9.36718 12.459L14.2215 0.4153ZM23.5514 18.5847H19.7704V0.4153H23.5514V18.5847ZM30.6236 12.3811V18.5847H26.8426V0.4153H33.746C35.8439 0.4153 37.5189 0.882513 38.7711 1.81694C40.0233 2.75137 40.6495 4.25683 40.6495 6.33333C40.6495 7.47541 40.3404 8.55693 39.7225 9.57787C39.1045 10.5815 38.2995 11.2736 37.3075 11.6544L42.0643 18.5847H37.5027L33.3313 12.3811H30.6236ZM33.6729 4.17896H30.6236V8.61749H33.8192C34.6323 8.61749 35.3153 8.43579 35.8683 8.07241C36.4374 7.70902 36.7221 7.12933 36.7221 6.33333C36.7221 5.48543 36.4374 4.91439 35.8683 4.62022C35.3153 4.32605 34.5835 4.17896 33.6729 4.17896ZM54.5161 0.4153H58.2971V10.7978C58.2971 13.2031 57.6385 15.1325 56.3212 16.5861C55.0203 18.0396 53.2639 18.7664 51.0522 18.7664C48.7592 18.7664 46.9133 18.0137 45.5148 16.5082C44.1163 14.9854 43.417 13.0301 43.417 10.6421V0.4153H47.198V10.1749C47.198 11.5765 47.5232 12.7359 48.1737 13.653C48.8242 14.5529 49.7837 15.0027 51.0522 15.0027C53.3615 15.0027 54.5161 13.428 54.5161 10.2787V0.4153ZM70.097 13.5492C70.097 12.9781 69.723 12.4764 68.9749 12.0437C68.6334 11.8706 67.7959 11.5765 66.4623 11.1612C65.1451 10.7632 64.1937 10.4171 63.6083 10.123C61.5917 9.13661 60.5835 7.60519 60.5835 5.52869C60.5835 4.40392 60.9494 3.38297 61.6812 2.46585C62.413 1.53142 63.3075 0.873861 64.3645 0.493169C65.2427 0.16439 66.1859 0 67.1942 0C68.5439 0 69.8043 0.285519 70.9752 0.856557C72.1461 1.4276 73.1137 2.2582 73.878 3.34836L71.3411 5.94399C70.1377 4.49044 68.7066 3.76366 67.0478 3.76366C65.3402 3.76366 64.4865 4.3347 64.4865 5.47678C64.4865 6.11703 64.9499 6.58425 65.8769 6.87842C66.3485 7.06876 67.1291 7.31967 68.2187 7.63115C68.8854 7.82149 69.4547 8.00319 69.9263 8.17623C70.3978 8.34928 70.9101 8.60018 71.4631 8.92896C72.016 9.24044 72.4632 9.57787 72.8047 9.94126C73.1462 10.3046 73.4308 10.7719 73.6585 11.3429C73.8861 11.9139 74 12.5455 74 13.2377C74 15.0027 73.3495 16.4044 72.0485 17.4426C70.7475 18.4809 69.2432 19 67.5357 19C65.8769 19 64.3238 18.628 62.8765 17.8839C61.4291 17.1225 60.3476 16.015 59.6321 14.5615L62.3886 12.1216C62.9253 13.0733 63.6408 13.8347 64.5352 14.4057C65.4459 14.9594 66.4136 15.2363 67.4381 15.2363C68.1048 15.2363 68.7147 15.1152 69.2676 14.873C69.8206 14.6134 70.097 14.1721 70.097 13.5492Z" fill="white"/>
</svg>
