<svg width="40" height="40" viewBox="0 0 40 40" fill="none" xmlns="http://www.w3.org/2000/svg">
<rect width="40" height="40" rx="20" fill="#EDEDED"/>
<path d="M15.248 15.452H11.018V13.4H21.656V15.452H17.426V26H15.248V15.452ZM25.2241 13.4H27.4021V22.094C27.4021 23.33 27.0721 24.314 26.4121 25.046C25.7641 25.778 24.8341 26.144 23.6221 26.144C22.7581 26.144 21.9841 25.946 21.3001 25.55C20.6281 25.142 20.1061 24.56 19.7341 23.804L21.3541 22.58C21.8461 23.348 22.3141 23.804 22.7581 23.948C23.0101 24.056 23.2381 24.11 23.4421 24.11C24.1501 24.098 24.6241 23.888 24.8641 23.48C25.1041 23.06 25.2241 22.46 25.2241 21.68V13.4Z" fill="black"/>
</svg>
