<svg width="490" height="396" viewBox="0 0 490 396" fill="none" xmlns="http://www.w3.org/2000/svg">
<path d="M51.9323 13.9228C55.6494 7.94427 64.3506 7.94427 68.0677 13.9228L77.5305 29.1423C78.976 31.4672 81.2724 33.1356 83.9302 33.7919L101.329 38.0885C108.164 39.7762 110.852 48.0516 106.315 53.4342L94.7646 67.137C93.0002 69.2301 92.1231 71.9297 92.3202 74.6602L93.6105 92.5352C94.1173 99.5567 87.0779 104.671 80.5566 102.019L63.9552 95.2686C61.4192 94.2374 58.5808 94.2374 56.0448 95.2686L39.4434 102.019C32.9221 104.671 25.8827 99.5567 26.3895 92.5352L27.6798 74.6602C27.8769 71.9297 26.9998 69.2302 25.2353 67.137L13.6849 53.4342C9.14765 48.0516 11.8365 39.7762 18.671 38.0885L36.0698 33.7919C38.7276 33.1356 41.024 31.4672 42.4695 29.1423L51.9323 13.9228Z" stroke="black"/>
<path d="M211.888 40.3739L212.864 40.4925L222.333 9.9644L216.529 41.3959L217.449 41.7448L233.949 14.3698L220.792 43.4991L221.602 44.058L244.173 21.4269L224.427 46.5613L225.08 47.2977L252.411 30.7259L227.224 50.4045L227.681 51.2756L258.184 41.7261L229.02 54.8053L229.256 55.7606L261.157 53.7884L229.711 59.5081V60.4919L261.157 66.2116L229.256 64.2394L229.02 65.1947L258.184 78.2739L227.681 68.7243L227.224 69.5955L252.411 89.2741L225.08 72.7023L224.427 73.4387L244.173 98.5731L221.602 75.942L220.792 76.5009L233.949 105.63L217.449 78.2552L216.529 78.6041L222.333 110.036L212.864 79.5075L211.888 79.6261L210 111.533L208.112 79.6261L207.136 79.5075L197.667 110.036L203.471 78.6041L202.551 78.2552L186.051 105.63L199.208 76.5009L198.398 75.942L175.827 98.573L195.573 73.4387L194.92 72.7023L167.589 89.2741L192.776 69.5955L192.319 68.7243L161.816 78.2739L190.98 65.1947L190.744 64.2394L158.843 66.2116L190.289 60.4919V59.5081L158.843 53.7884L190.744 55.7606L190.98 54.8053L161.816 41.7261L192.319 51.2756L192.776 50.4045L167.589 30.7259L194.92 47.2977L195.573 46.5613L175.827 21.427L198.398 44.058L199.208 43.4991L186.051 14.3698L202.551 41.7448L203.471 41.3959L197.667 9.96443L207.136 40.4925L208.112 40.3739L210 8.46693L211.888 40.3739Z" stroke="black"/>
<path d="M154 130.745L162.486 140.111L162.746 140.398L163.089 140.217L174.267 134.318L179.037 146.021L179.184 146.381L179.568 146.328L192.089 144.608L192.569 157.237L192.583 157.625L192.963 157.707L205.317 160.372L201.448 172.404L201.33 172.773L201.658 172.98L212.355 179.71L204.605 189.693L204.367 190L204.605 190.307L212.355 200.29L201.658 207.02L201.33 207.227L201.448 207.596L205.317 219.628L192.963 222.293L192.583 222.375L192.569 222.763L192.089 235.392L179.568 233.672L179.184 233.619L179.037 233.979L174.267 245.682L163.089 239.783L162.746 239.602L162.486 239.889L154 249.255L145.514 239.889L145.254 239.602L144.911 239.783L133.733 245.682L128.963 233.979L128.816 233.619L128.432 233.672L115.911 235.392L115.431 222.763L115.417 222.375L115.037 222.293L102.683 219.628L106.552 207.596L106.67 207.227L106.342 207.02L95.6449 200.29L103.395 190.307L103.633 190L103.395 189.693L95.6449 179.71L106.342 172.98L106.67 172.773L106.552 172.404L102.683 160.372L115.037 157.707L115.417 157.625L115.431 157.237L115.911 144.608L128.432 146.328L128.816 146.381L128.963 146.021L133.733 134.318L144.911 140.217L145.254 140.398L145.514 140.111L154 130.745Z" stroke="black"/>
<path d="M424 0.744688L432.486 10.1105L432.746 10.3982L433.089 10.217L444.267 4.31822L449.037 16.0214L449.184 16.3809L449.568 16.3281L462.089 14.6078L462.569 27.2368L462.583 27.6247L462.963 27.7066L475.317 30.3723L471.448 42.4039L471.33 42.7735L471.658 42.9802L482.355 49.7104L474.605 59.6934L474.367 60L474.605 60.3066L482.355 70.2896L471.658 77.0198L471.33 77.2265L471.448 77.5961L475.317 89.6277L462.963 92.2934L462.583 92.3753L462.569 92.7632L462.089 105.392L449.568 103.672L449.184 103.619L449.037 103.979L444.267 115.682L433.089 109.783L432.746 109.602L432.486 109.889L424 119.255L415.514 109.889L415.254 109.602L414.911 109.783L403.733 115.682L398.963 103.979L398.816 103.619L398.432 103.672L385.911 105.392L385.431 92.7632L385.417 92.3753L385.037 92.2934L372.683 89.6277L376.552 77.5961L376.67 77.2265L376.342 77.0198L365.645 70.2896L373.395 60.3066L373.633 60L373.395 59.6934L365.645 49.7104L376.342 42.9802L376.67 42.7735L376.552 42.4039L372.683 30.3723L385.037 27.7066L385.417 27.6247L385.431 27.2368L385.911 14.6078L398.432 16.3281L398.816 16.3809L398.963 16.0214L403.733 4.31822L414.911 10.217L415.254 10.3982L415.514 10.1105L424 0.744688Z" stroke="black"/>
<mask id="path-5-inside-1_1118_30" fill="white">
<path d="M59.6396 260L63.3811 272.062C70.5836 295.281 87.6054 314.174 109.95 323.75C87.6019 333.328 70.5675 352.21 63.334 375.424L59.6396 387.279L55.9453 375.424C48.7118 352.21 31.6774 333.328 9.32909 323.75C31.6739 314.174 48.6957 295.281 55.8982 272.062L59.6396 260Z"/>
</mask>
<path d="M59.6396 260L60.5948 259.704L59.6396 256.625L58.6845 259.704L59.6396 260ZM59.6396 387.279L58.6849 387.577L59.6396 390.641L60.5944 387.577L59.6396 387.279ZM63.3811 272.062L62.426 272.358L63.3811 272.062ZM55.9453 375.424L54.9906 375.721L55.9453 375.424ZM60.5944 386.982L56.9001 375.126L54.9906 375.721L58.6849 387.577L60.5944 386.982ZM58.6845 260.296L62.426 272.358L64.3362 271.765L60.5948 259.704L58.6845 260.296ZM62.3792 375.126L58.6849 386.982L60.5944 387.577L64.2887 375.721L62.3792 375.126ZM56.8533 272.358L60.5948 260.296L58.6845 259.704L54.9431 271.765L56.8533 272.358ZM9.72301 324.669C32.3371 314.977 49.564 295.857 56.8533 272.358L54.9431 271.765C47.8274 294.705 31.0107 313.37 8.93517 322.831L9.72301 324.669ZM109.556 322.831C86.9391 332.524 69.6998 351.634 62.3792 375.126L64.2887 375.721C71.4352 352.787 88.2647 334.132 110.344 324.669L109.556 322.831ZM62.426 272.358C69.7153 295.857 86.9422 314.977 109.556 324.669L110.344 322.831C88.2686 313.37 71.4519 294.705 64.3362 271.765L62.426 272.358ZM56.9001 375.126C49.5795 351.634 32.3402 332.524 9.72301 322.831L8.93517 324.669C31.0146 334.132 47.8441 352.787 54.9906 375.721L56.9001 375.126Z" fill="black" mask="url(#path-5-inside-1_1118_30)"/>
<path d="M271.932 289.923C275.649 283.944 284.351 283.944 288.068 289.923L297.531 305.142C298.976 307.467 301.272 309.136 303.93 309.792L321.329 314.088C328.164 315.776 330.852 324.052 326.315 329.434L314.765 343.137C313 345.23 312.123 347.93 312.32 350.66L313.61 368.535C314.117 375.557 307.078 380.671 300.557 378.019L283.955 371.269C281.419 370.237 278.581 370.237 276.045 371.269L259.443 378.019C252.922 380.671 245.883 375.557 246.39 368.535L247.68 350.66C247.877 347.93 247 345.23 245.235 343.137L233.685 329.434C229.148 324.052 231.836 315.776 238.671 314.088L256.07 309.792C258.728 309.136 261.024 307.467 262.469 305.142L271.932 289.923Z" stroke="black"/>
<path d="M431.888 316.374L432.864 316.492L442.333 285.964L436.529 317.396L437.449 317.745L453.949 290.37L440.792 319.499L441.602 320.058L464.173 297.427L444.427 322.561L445.08 323.298L472.411 306.726L447.224 326.404L447.681 327.276L478.184 317.726L449.02 330.805L449.256 331.761L481.157 329.788L449.711 335.508V336.492L481.157 342.212L449.256 340.239L449.02 341.195L478.184 354.274L447.681 344.724L447.224 345.596L472.411 365.274L445.08 348.702L444.427 349.439L464.173 374.573L441.602 351.942L440.792 352.501L453.949 381.63L437.449 354.255L436.529 354.604L442.333 386.036L432.864 355.508L431.888 355.626L430 387.533L428.112 355.626L427.136 355.508L417.667 386.036L423.471 354.604L422.551 354.255L406.051 381.63L419.208 352.501L418.398 351.942L395.827 374.573L415.573 349.439L414.92 348.702L387.589 365.274L412.776 345.596L412.319 344.724L381.816 354.274L410.98 341.195L410.744 340.239L378.843 342.212L410.289 336.492V335.508L378.843 329.788L410.744 331.761L410.98 330.805L381.816 317.726L412.319 327.276L412.776 326.404L387.589 306.726L414.92 323.298L415.573 322.561L395.827 297.427L418.398 320.058L419.208 319.499L406.051 290.37L422.551 317.745L423.471 317.396L417.667 285.964L427.136 316.492L428.112 316.374L430 284.467L431.888 316.374Z" stroke="black"/>
</svg>
